<svg xmlns="http://www.w3.org/2000/svg" viewBox="0 9.916666984558105 308.21429443359375 36.983333587646484" data-asc="0.924" width="308.21429443359375" height="36.983333587646484"><defs/><g fill="#000000"><g transform="translate(0, 0)"><path d="M9.25 46.15L3.20 19.10Q2.75 17.15 2.08 16.35Q1.40 15.55 0.10 15.55Q0 15.55 0 15.25Q0 14.95 0.10 14.95Q1.05 14.95 2.15 15.03Q3.25 15.10 4.25 15.10Q6 15.10 7.28 15.03Q8.55 14.95 9.65 14.95Q9.80 14.95 9.80 15.25Q9.80 15.55 9.65 15.55Q8.05 15.55 7.25 16.18Q6.45 16.80 6.85 18.60L12.15 42.10L9.75 45.20L22.90 19.60Q23.95 17.55 23.30 16.55Q22.65 15.55 20.40 15.55Q20.25 15.55 20.25 15.25Q20.25 14.95 20.40 14.95Q21.50 14.95 22.58 15.03Q23.65 15.10 25.40 15.10Q26.65 15.10 27.48 15.03Q28.30 14.95 29.45 14.95Q29.65 14.95 29.65 15.25Q29.65 15.55 29.45 15.55Q28.55 15.55 27.68 15.85Q26.80 16.15 25.93 17.08Q25.05 18 24.05 19.85L10.45 46.15Q10.30 46.35 9.80 46.35Q9.30 46.35 9.25 46.15ZM30.65 46.80Q27.90 46.80 26.35 45.40Q24.80 44 24.32 41.75Q23.85 39.50 24.30 36.95Q24.65 35.05 25.70 33.15Q26.75 31.25 28.30 29.70Q29.85 28.15 31.80 27.20Q33.75 26.25 35.95 26.25Q37.85 26.25 38.78 26.98Q39.70 27.70 39.55 28.95Q39.35 30.15 38.17 31.30Q37 32.45 35.15 33.35Q33.30 34.25 31 34.90Q28.70 35.55 26.30 35.80L26.40 35.15Q30.15 34.60 32.70 33.38Q35.25 32.15 35.65 30.00Q35.95 28.75 35.28 28.18Q34.60 27.60 33.60 27.60Q32.10 27.60 30.95 28.65Q29.80 29.70 29.05 31.45Q28.30 33.20 27.95 35.30Q27.45 38 27.85 40.18Q28.25 42.35 29.50 43.65Q30.75 44.95 32.85 44.95Q34 44.95 35.28 44.60Q36.55 44.25 37.75 43.30Q37.85 43.20 38.03 43.40Q38.20 43.60 38.10 43.75Q36.20 45.40 34.33 46.10Q32.45 46.80 30.65 46.80ZM43.25 46.60Q42.45 46.60 42.18 46.50Q41.90 46.40 41.90 46.25Q41.90 46.10 42.18 44.95Q42.45 43.80 42.65 42.50L47.65 15.70Q48.00 13.75 47.30 13.27Q46.60 12.80 44.40 13.90Q44.20 13.95 44.08 13.65Q43.95 13.35 44.15 13.30L51.00 9.95Q51.25 9.85 51.45 10.05Q51.65 10.25 51.60 10.35L45.20 45.75Q45.05 46.60 43.25 46.60M56.00 46.65Q54.60 46.65 54.25 45.50Q53.90 44.35 54.35 41.75L55.80 33.80Q56.30 31.10 55.90 29.78Q55.50 28.45 54.15 28.45Q52.60 28.45 50.90 30.48Q49.20 32.50 47.70 36.35Q46.20 40.20 45.20 45.75L44.50 45.70Q45.55 39.85 47.30 35.48Q49.05 31.10 51.30 28.68Q53.55 26.25 56.05 26.25Q58.20 26.25 58.93 27.80Q59.65 29.35 59.05 32.85L57.40 41.75Q57.15 43.25 57.38 43.88Q57.60 44.50 58.15 44.50Q58.75 44.50 59.53 43.90Q60.30 43.30 61.30 42.35Q61.45 42.15 61.68 42.35Q61.90 42.55 61.70 42.75Q60.10 44.60 58.75 45.63Q57.40 46.65 56.00 46.65ZM67.95 46.65Q66.60 46.65 66.18 45.53Q65.75 44.40 66.30 41.75L68.35 31.35Q68.90 28.55 67.50 28.55Q66.95 28.55 66.10 29.13Q65.25 29.70 64.25 30.75Q64.10 30.95 63.88 30.73Q63.65 30.50 63.85 30.35Q65.60 28.35 67.00 27.40Q68.40 26.45 69.70 26.45Q71.10 26.45 71.50 27.55Q71.90 28.65 71.40 31.10L69.35 41.75Q69.05 43.25 69.30 43.88Q69.55 44.50 70.10 44.50Q70.65 44.50 71.48 43.93Q72.30 43.35 73.25 42.40Q73.45 42.20 73.65 42.43Q73.85 42.65 73.65 42.80Q72.05 44.70 70.68 45.68Q69.30 46.65 67.95 46.65M71.15 20.75Q70.05 20.75 69.43 20.15Q68.80 19.55 68.80 18.40Q68.80 17.35 69.43 16.75Q70.05 16.15 71.15 16.15Q72.30 16.15 72.90 16.75Q73.50 17.35 73.50 18.40Q73.50 20.75 71.15 20.75ZM82.80 46.85Q80.60 46.85 79.23 45.88Q77.85 44.90 77.13 43.33Q76.40 41.75 76.28 39.85Q76.15 37.95 76.55 36.10Q77.15 33 78.90 30.80Q80.65 28.60 82.93 27.43Q85.20 26.25 87.40 26.25Q88.60 26.25 89.65 26.60Q90.70 26.95 91.33 27.65Q91.95 28.35 91.85 29.35Q91.80 30.10 91.30 30.63Q90.80 31.15 89.90 31.15Q89 31.15 88.55 30.60Q88.10 30.05 87.90 29.35Q87.70 28.70 87.20 28.08Q86.70 27.45 85.50 27.45Q84.10 27.45 83 28.38Q81.90 29.30 81.20 30.90Q80.50 32.50 80.10 34.50Q79.65 37.25 79.98 39.63Q80.30 42 81.58 43.45Q82.85 44.90 85.20 44.90Q86.65 44.90 87.95 44.25Q89.25 43.60 90.20 42.85Q90.35 42.75 90.55 42.95Q90.75 43.15 90.60 43.30Q88.65 45.15 86.65 46Q84.65 46.85 82.80 46.85ZM96.80 46.65Q95.35 46.65 95 45.50Q94.65 44.35 95.10 41.75L99.95 15.70Q100.30 13.75 99.63 13.27Q98.95 12.80 96.75 13.90Q96.55 13.95 96.42 13.65Q96.30 13.35 96.50 13.30L103.35 9.95Q103.60 9.85 103.80 10.05Q104 10.25 103.95 10.35L98.20 41.75Q97.90 43.25 98.15 43.88Q98.40 44.50 98.95 44.50Q99.50 44.50 100.28 43.90Q101.05 43.30 102.05 42.35Q102.25 42.15 102.45 42.35Q102.65 42.55 102.45 42.75Q100.85 44.60 99.50 45.63Q98.15 46.65 96.80 46.65ZM112.05 46.80Q109.30 46.80 107.75 45.40Q106.20 44 105.73 41.75Q105.25 39.50 105.70 36.95Q106.05 35.05 107.10 33.15Q108.15 31.25 109.70 29.70Q111.25 28.15 113.20 27.20Q115.15 26.25 117.35 26.25Q119.25 26.25 120.18 26.98Q121.10 27.70 120.95 28.95Q120.75 30.15 119.58 31.30Q118.40 32.45 116.55 33.35Q114.70 34.25 112.40 34.90Q110.10 35.55 107.70 35.80L107.80 35.15Q111.55 34.60 114.10 33.38Q116.65 32.15 117.05 30.00Q117.35 28.75 116.68 28.18Q116 27.60 115 27.60Q113.50 27.60 112.35 28.65Q111.20 29.70 110.45 31.45Q109.70 33.20 109.35 35.30Q108.85 38 109.25 40.18Q109.65 42.35 110.90 43.65Q112.15 44.95 114.25 44.95Q115.40 44.95 116.68 44.60Q117.95 44.25 119.15 43.30Q119.25 43.20 119.43 43.40Q119.60 43.60 119.50 43.75Q117.60 45.40 115.73 46.10Q113.85 46.80 112.05 46.80ZM146.25 46.15L140.20 19.10Q139.75 17.15 139.07 16.35Q138.40 15.55 137.10 15.55Q137 15.55 137 15.25Q137 14.95 137.10 14.95Q138.05 14.95 139.15 15.03Q140.25 15.10 141.25 15.10Q143 15.10 144.28 15.03Q145.55 14.95 146.65 14.95Q146.80 14.95 146.80 15.25Q146.80 15.55 146.65 15.55Q145.05 15.55 144.25 16.18Q143.45 16.80 143.85 18.60L149.15 42.10L146.75 45.20L159.90 19.60Q160.95 17.55 160.30 16.55Q159.65 15.55 157.40 15.55Q157.25 15.55 157.25 15.25Q157.25 14.95 157.40 14.95Q158.50 14.95 159.57 15.03Q160.65 15.10 162.40 15.10Q163.65 15.10 164.47 15.03Q165.30 14.95 166.45 14.95Q166.65 14.95 166.65 15.25Q166.65 15.55 166.45 15.55Q165.55 15.55 164.68 15.85Q163.80 16.15 162.93 17.08Q162.05 18 161.05 19.85L147.45 46.15Q147.30 46.35 146.80 46.35Q146.30 46.35 146.25 46.15ZM163.30 46.85Q161.65 46.85 160.78 45.65Q159.90 44.45 160.25 41.65Q160.65 39 162 36.30Q163.35 33.60 165.28 31.30Q167.20 29.00 169.40 27.63Q171.60 26.25 173.60 26.25Q174.55 26.25 175.50 26.60Q176.45 26.95 177.13 27.73Q177.80 28.50 177.90 29.80L175.50 28.35Q176.20 28.25 177.05 27.53Q177.90 26.80 178.30 25.85Q178.40 25.70 178.68 25.78Q178.95 25.85 178.90 25.95L176 41.75Q175.50 44.50 176.65 44.50Q177.20 44.50 178.03 43.90Q178.85 43.30 179.80 42.35Q179.95 42.20 180.15 42.40Q180.35 42.60 180.20 42.75Q178.60 44.60 177.25 45.63Q175.90 46.65 174.60 46.65Q173.25 46.65 172.85 45.53Q172.45 44.40 172.90 41.75L174.10 34.75L175 33.90Q173.65 37.80 171.68 40.73Q169.70 43.65 167.53 45.25Q165.35 46.85 163.30 46.85M165.55 44Q166.90 44 168.30 42.98Q169.70 41.95 170.97 40.25Q172.25 38.55 173.18 36.55Q174.10 34.55 174.45 32.75Q174.85 30.75 174.13 29.48Q173.40 28.20 171.65 28.25Q170 28.25 168.35 29.65Q166.70 31.05 165.40 33.43Q164.10 35.80 163.65 38.85Q163.25 41.55 163.75 42.78Q164.25 44 165.55 44ZM185.70 46.65Q184.25 46.65 183.90 45.50Q183.55 44.35 184 41.75L188.85 15.70Q189.20 13.75 188.53 13.27Q187.85 12.80 185.65 13.90Q185.45 13.95 185.32 13.65Q185.20 13.35 185.40 13.30L192.25 9.95Q192.50 9.85 192.70 10.05Q192.90 10.25 192.85 10.35L187.10 41.75Q186.80 43.25 187.05 43.88Q187.30 44.50 187.85 44.50Q188.40 44.50 189.17 43.90Q189.95 43.30 190.95 42.35Q191.15 42.15 191.35 42.35Q191.55 42.55 191.35 42.75Q189.75 44.60 188.40 45.63Q187.05 46.65 185.70 46.65ZM199.60 46.85Q197.50 46.85 196.70 45.28Q195.90 43.70 196.60 40.25L198.40 31.35Q198.65 29.85 198.42 29.23Q198.20 28.60 197.60 28.60Q197.10 28.60 196.30 29.20Q195.50 29.80 194.55 30.75Q194.35 30.95 194.15 30.75Q193.95 30.55 194.15 30.35Q195.80 28.45 197.13 27.45Q198.45 26.45 199.80 26.45Q201.10 26.45 201.55 27.55Q202 28.65 201.45 31.35L199.85 39.30Q199.25 42.05 199.72 43.35Q200.20 44.65 201.55 44.65Q203.10 44.65 204.78 42.63Q206.45 40.60 207.95 36.75Q209.45 32.90 210.45 27.35L211.15 27.40Q210.20 33.25 208.42 37.63Q206.65 42 204.40 44.43Q202.15 46.85 199.60 46.85M209.55 46.65Q208.20 46.65 207.82 45.55Q207.45 44.45 207.90 42L210.45 27.35Q210.60 26.50 212.45 26.50Q213.25 26.50 213.50 26.60Q213.75 26.70 213.75 26.85Q213.75 27 213.50 28.15Q213.25 29.30 213 30.60L210.95 41.75Q210.50 44.55 211.75 44.55Q212.30 44.55 213.15 43.98Q214 43.40 215.05 42.35Q215.20 42.15 215.40 42.38Q215.60 42.60 215.45 42.75Q213.70 44.75 212.30 45.70Q210.90 46.65 209.55 46.65ZM220.55 46.85Q218.90 46.85 218.03 45.65Q217.15 44.45 217.50 41.65Q217.90 39 219.25 36.30Q220.60 33.60 222.53 31.30Q224.45 29.00 226.65 27.63Q228.85 26.25 230.85 26.25Q231.80 26.25 232.75 26.60Q233.70 26.95 234.38 27.73Q235.05 28.50 235.15 29.80L232.75 28.35Q233.45 28.25 234.30 27.53Q235.15 26.80 235.55 25.85Q235.65 25.70 235.93 25.78Q236.20 25.85 236.15 25.95L233.25 41.75Q232.75 44.50 233.90 44.50Q234.45 44.50 235.28 43.90Q236.10 43.30 237.05 42.35Q237.20 42.20 237.40 42.40Q237.60 42.60 237.45 42.75Q235.85 44.60 234.50 45.63Q233.15 46.65 231.85 46.65Q230.50 46.65 230.10 45.53Q229.70 44.40 230.15 41.75L231.35 34.75L232.25 33.90Q230.90 37.80 228.93 40.73Q226.95 43.65 224.78 45.25Q222.60 46.85 220.55 46.85M222.80 44Q224.15 44 225.55 42.98Q226.95 41.95 228.22 40.25Q229.50 38.55 230.43 36.55Q231.35 34.55 231.70 32.75Q232.10 30.75 231.38 29.48Q230.65 28.20 228.90 28.25Q227.25 28.25 225.60 29.65Q223.95 31.05 222.65 33.43Q221.35 35.80 220.90 38.85Q220.50 41.55 221 42.78Q221.50 44 222.80 44ZM244.50 46.80Q243.45 46.80 242.53 46.43Q241.60 46.05 241.15 45.05Q240.70 44.05 241 42.20L243.10 30.90Q243.45 29.10 243.15 28.65Q242.85 28.20 241.40 28.20Q241.20 28.20 241.25 27.85Q241.30 27.50 241.45 27.50Q243.40 27.50 244.72 26.33Q246.05 25.15 246.65 23.50Q246.70 23.30 247.13 23.35Q247.55 23.40 247.50 23.55L244.40 40.90Q244.05 42.85 244.63 43.75Q245.20 44.65 246.75 44.65Q248.05 44.65 249.17 44.05Q250.30 43.45 251.40 42.55Q251.50 42.45 251.70 42.65Q251.90 42.85 251.80 42.95Q249.50 45 247.78 45.90Q246.05 46.80 244.50 46.80M251.80 29.20Q251.70 29.20 250.72 29.05Q249.75 28.90 248.42 28.78Q247.10 28.65 245.85 28.65L245.95 27.40Q247.35 27.40 248.82 27.30Q250.30 27.20 251.47 27.10Q252.65 27 253.10 27Q253.30 27 253.40 27.15Q253.50 27.30 253.45 27.50Q253.35 27.90 252.85 28.55Q252.35 29.20 251.80 29.20ZM258.60 46.65Q257.25 46.65 256.82 45.53Q256.40 44.40 256.95 41.75L259 31.35Q259.55 28.55 258.15 28.55Q257.60 28.55 256.75 29.13Q255.90 29.70 254.90 30.75Q254.75 30.95 254.52 30.73Q254.30 30.50 254.50 30.35Q256.25 28.35 257.65 27.40Q259.05 26.45 260.35 26.45Q261.75 26.45 262.15 27.55Q262.55 28.65 262.05 31.10L260 41.75Q259.70 43.25 259.95 43.88Q260.20 44.50 260.75 44.50Q261.30 44.50 262.13 43.93Q262.95 43.35 263.90 42.40Q264.10 42.20 264.30 42.43Q264.50 42.65 264.30 42.80Q262.70 44.70 261.32 45.68Q259.95 46.65 258.60 46.65M261.80 20.75Q260.70 20.75 260.07 20.15Q259.45 19.55 259.45 18.40Q259.45 17.35 260.07 16.75Q260.70 16.15 261.80 16.15Q262.95 16.15 263.55 16.75Q264.15 17.35 264.15 18.40Q264.15 20.75 261.80 20.75ZM273.30 46.90Q270.80 46.90 269.23 45.50Q267.65 44.10 267.13 41.75Q266.60 39.40 267.10 36.55Q267.70 33.60 269.25 31.28Q270.80 28.95 273.03 27.60Q275.25 26.25 277.80 26.25Q280.45 26.25 282.05 27.65Q283.65 29.05 284.18 31.40Q284.70 33.75 284.15 36.55Q283.50 39.80 281.80 42.13Q280.10 44.45 277.85 45.68Q275.60 46.90 273.30 46.90M275.05 45.65Q276.95 45.65 278.50 43.83Q280.05 42 280.65 38.75Q281 36.75 280.93 34.78Q280.85 32.80 280.30 31.13Q279.75 29.45 278.75 28.45Q277.75 27.45 276.25 27.45Q274.40 27.45 272.82 29.25Q271.25 31.05 270.60 34.40Q270.20 36.45 270.30 38.43Q270.40 40.40 270.98 42.05Q271.55 43.70 272.57 44.68Q273.60 45.65 275.05 45.65ZM302.45 46.65Q301.05 46.65 300.70 45.50Q300.35 44.35 300.80 41.75L302.25 33.80Q303.35 28.45 300.60 28.45Q299.05 28.45 297.35 30.48Q295.65 32.50 294.15 36.35Q292.65 40.20 291.65 45.75L290.95 45.70Q292 39.85 293.73 35.48Q295.45 31.10 297.73 28.68Q300 26.25 302.50 26.25Q304.65 26.25 305.40 27.80Q306.15 29.35 305.50 32.85L303.85 41.75Q303.60 43.25 303.85 43.88Q304.10 44.50 304.65 44.50Q305.20 44.50 305.98 43.90Q306.75 43.30 307.75 42.35Q307.90 42.15 308.10 42.35Q308.30 42.55 308.15 42.75Q306.55 44.60 305.20 45.63Q303.85 46.65 302.45 46.65M289.70 46.60Q288.90 46.60 288.63 46.50Q288.35 46.40 288.35 46.25Q288.35 46.10 288.63 44.95Q288.90 43.80 289.10 42.50L291.15 31.35Q291.65 28.55 290.35 28.55Q289.80 28.55 288.95 29.13Q288.10 29.70 287.05 30.75Q286.90 30.95 286.70 30.73Q286.50 30.50 286.65 30.35Q288.40 28.35 289.83 27.40Q291.25 26.45 292.60 26.45Q293.95 26.45 294.33 27.55Q294.70 28.65 294.25 31.10L291.65 45.75Q291.50 46.60 289.70 46.60Z"/></g></g></svg>